<svg width="28" height="40" viewBox="0 0 28 40" fill="none" xmlns="http://www.w3.org/2000/svg">
<path fill-rule="evenodd" clip-rule="evenodd" d="M12.0775 19.7783C12.0775 17.6539 12.7714 15.6921 13.9465 14.1022C15.1214 15.6921 15.8154 17.6539 15.8154 19.7783C15.8154 21.9017 15.1214 23.8635 13.9465 25.4543C12.7714 23.8635 12.0775 21.9017 12.0775 19.7783ZM19.2713 36.9647C19.116 36.9424 18.961 36.9181 18.8067 36.8922C17.0877 36.6034 15.4556 36.0643 13.9465 35.3151C12.5326 34.6138 11.2281 33.7281 10.0643 32.6894C8.95646 31.7003 7.9764 30.5727 7.1515 29.3336C5.32741 26.5923 4.26548 23.3083 4.26548 19.7783C4.26548 16.2473 5.32741 12.9633 7.1515 10.2224C7.9764 8.98378 8.95646 7.85588 10.0643 6.86671C11.2281 5.82787 12.5326 4.94177 13.9465 4.24052C15.3598 4.94124 16.6647 5.82787 17.8286 6.86671C18.9367 7.85588 19.9167 8.98378 20.7413 10.2224C22.5654 12.9633 23.6275 16.2473 23.6275 19.7783C23.6275 23.3083 22.5654 26.5923 20.7413 29.3336C19.3338 29.1874 18.0165 28.7429 16.8541 28.0638C18.6507 25.7778 19.7219 22.9019 19.7219 19.7783C19.7219 16.6537 18.6507 13.778 16.8541 11.4922C16.0274 10.4404 15.0475 9.51313 13.9465 8.74411C12.8456 9.51313 11.8655 10.4404 11.0388 11.4922C9.2421 13.778 8.17106 16.6537 8.17106 19.7783C8.17106 22.9019 9.2421 25.7778 11.0388 28.0638C11.8655 29.1156 12.8456 30.043 13.9465 30.8124C15.1174 31.6297 16.425 32.2695 17.8286 32.6894C19.0722 33.0618 20.392 33.2621 21.7576 33.2621L22.6932 33.231C23.8536 31.8253 24.8365 30.2696 25.6064 28.5965C26.8433 25.9105 27.5334 22.9244 27.5334 19.7783C27.5334 16.6321 26.8433 13.6451 25.6064 10.9596C24.8365 9.28606 23.8536 7.73028 22.6932 6.32458C21.5571 4.95028 20.2506 3.71879 18.8067 2.66398C17.3212 1.57849 15.6903 0.679256 13.9465 0C12.2026 0.679256 10.5716 1.57849 9.08605 2.66398C7.64233 3.71879 6.33571 4.95028 5.19978 6.32458C4.03919 7.73028 3.05628 9.28606 2.2866 10.9596C1.04969 13.6451 0.359375 16.6321 0.359375 19.7783C0.359375 22.9244 1.04969 25.9105 2.2866 28.5965C3.05628 30.2696 4.03901 31.8253 5.19978 33.231C6.33571 34.6062 7.64233 35.8368 9.08605 36.8922C10.5716 37.9777 12.2026 38.8764 13.9465 39.5556C14.3588 39.7163 14.7782 39.8643 15.2029 40C16.7156 39.1607 18.0478 38.1198 19.2713 36.9647Z" fill="white"/>
</svg>
